<svg xmlns="http://www.w3.org/2000/svg" xmlns:xlink="http://www.w3.org/1999/xlink" width="1024" zoomAndPan="magnify" viewBox="0 0 75 74.999997" height="1024" preserveAspectRatio="xMidYMid meet" version="1.0"><defs><g/><clipPath id="798fe1b980"><path d="M 0.75 1.84375 L 68.25 1.84375 L 68.25 69.34375 L 0.75 69.34375 Z M 0.75 1.84375 " clip-rule="nonzero"/></clipPath><clipPath id="f787bcffc3"><path d="M 34.5 1.84375 C 15.859375 1.84375 0.75 16.953125 0.75 35.59375 C 0.75 54.230469 15.859375 69.34375 34.5 69.34375 C 53.140625 69.34375 68.25 54.230469 68.25 35.59375 C 68.25 16.953125 53.140625 1.84375 34.5 1.84375 Z M 34.5 1.84375 " clip-rule="nonzero"/></clipPath><clipPath id="ccfe313291"><path d="M 0.75 0.84375 L 68.25 0.84375 L 68.25 68.34375 L 0.75 68.34375 Z M 0.75 0.84375 " clip-rule="nonzero"/></clipPath><clipPath id="edb0c89034"><path d="M 34.5 0.84375 C 15.859375 0.84375 0.75 15.953125 0.75 34.59375 C 0.75 53.230469 15.859375 68.34375 34.5 68.34375 C 53.140625 68.34375 68.25 53.230469 68.25 34.59375 C 68.25 15.953125 53.140625 0.84375 34.5 0.84375 Z M 34.5 0.84375 " clip-rule="nonzero"/></clipPath><clipPath id="da4402d44c"><rect x="0" width="69" y="0" height="69"/></clipPath><clipPath id="86e106dbe2"><path d="M 3.347656 4.441406 L 65.652344 4.441406 L 65.652344 66.746094 L 3.347656 66.746094 Z M 3.347656 4.441406 " clip-rule="nonzero"/></clipPath><clipPath id="f0ec8f3a5a"><path d="M 34.5 4.441406 C 17.296875 4.441406 3.347656 18.386719 3.347656 35.59375 C 3.347656 52.796875 17.296875 66.746094 34.5 66.746094 C 51.703125 66.746094 65.652344 52.796875 65.652344 35.59375 C 65.652344 18.386719 51.703125 4.441406 34.5 4.441406 Z M 34.5 4.441406 " clip-rule="nonzero"/></clipPath><clipPath id="467794831a"><path d="M 0.347656 0.441406 L 62.652344 0.441406 L 62.652344 62.746094 L 0.347656 62.746094 Z M 0.347656 0.441406 " clip-rule="nonzero"/></clipPath><clipPath id="5906279b6c"><path d="M 31.5 0.441406 C 14.296875 0.441406 0.347656 14.386719 0.347656 31.59375 C 0.347656 48.796875 14.296875 62.746094 31.5 62.746094 C 48.703125 62.746094 62.652344 48.796875 62.652344 31.59375 C 62.652344 14.386719 48.703125 0.441406 31.5 0.441406 Z M 31.5 0.441406 " clip-rule="nonzero"/></clipPath><clipPath id="616a60c040"><rect x="0" width="63" y="0" height="63"/></clipPath><clipPath id="1f4bf987b5"><rect x="0" width="48" y="0" height="75"/></clipPath><clipPath id="34d74bab6e"><rect x="0" width="69" y="0" height="75"/></clipPath><clipPath id="5129943e2d"><path d="M 0 61.5 L 75 61.5 L 75 75 L 0 75 Z M 0 61.5 " clip-rule="nonzero"/></clipPath><clipPath id="0c313ab5f0"><path d="M 0 0.5 L 75 0.5 L 75 14 L 0 14 Z M 0 0.5 " clip-rule="nonzero"/></clipPath><clipPath id="3899e13d82"><rect x="0" width="75" y="0" height="14"/></clipPath><clipPath id="d37e7f56f6"><path d="M 28 5 L 42.800781 5 L 42.800781 23 L 28 23 Z M 28 5 " clip-rule="nonzero"/></clipPath><clipPath id="5fbefccc9b"><rect x="0" width="43" y="0" height="24"/></clipPath></defs><rect x="0" y="0" width="75" height="75" fill="#ffffff"/><g transform="matrix(1, 0, 0, 1, 3, -0.000000000000001893)"><g clip-path="url(#34d74bab6e)"><g clip-path="url(#798fe1b980)"><g clip-path="url(#f787bcffc3)"><g transform="matrix(1, 0, 0, 1, -0.000000000000000444, 1)"><g clip-path="url(#da4402d44c)"><g clip-path="url(#ccfe313291)"><g clip-path="url(#edb0c89034)"><path fill="#000000" d="M 0.75 0.84375 L 68.25 0.84375 L 68.25 68.34375 L 0.75 68.34375 Z M 0.75 0.84375 " fill-opacity="1" fill-rule="nonzero"/></g></g></g></g></g></g><g clip-path="url(#86e106dbe2)"><g clip-path="url(#f0ec8f3a5a)"><g transform="matrix(1, 0, 0, 1, 3, 4)"><g clip-path="url(#616a60c040)"><g clip-path="url(#467794831a)"><g clip-path="url(#5906279b6c)"><path fill="#ee7203" d="M 0.347656 0.441406 L 62.652344 0.441406 L 62.652344 62.746094 L 0.347656 62.746094 Z M 0.347656 0.441406 " fill-opacity="1" fill-rule="nonzero"/></g></g></g></g></g></g><g transform="matrix(1, 0, 0, 1, 10, -0.000000000000001893)"><g clip-path="url(#1f4bf987b5)"><g fill="#000000" fill-opacity="1"><g transform="translate(1.331971, 56.201834)"><g><path d="M 29.394531 -27.4375 C 28.855469 -28.425781 28.085938 -29.179688 27.085938 -29.703125 C 26 -30.265625 24.691406 -30.546875 23.15625 -30.546875 C 20.523438 -30.546875 18.4375 -29.710938 16.898438 -28.035156 C 15.3125 -26.300781 14.515625 -23.925781 14.515625 -20.898438 C 14.515625 -17.660156 15.347656 -15.175781 17.011719 -13.449219 C 18.652344 -11.746094 20.976562 -10.894531 23.988281 -10.894531 C 25.992188 -10.894531 27.660156 -11.382812 28.992188 -12.363281 C 30.332031 -13.347656 31.324219 -14.808594 31.96875 -16.734375 L 34.082031 -16.03125 L 34.082031 -13.804688 L 18.96875 -13.804688 L 18.96875 -25.738281 L 45.511719 -25.738281 L 45.511719 -13.75 L 45.417969 -13.4375 C 44.578125 -10.613281 43.164062 -7.996094 41.167969 -5.585938 C 39.164062 -3.160156 36.628906 -1.207031 33.570312 0.28125 C 30.492188 1.777344 27.039062 2.523438 23.214844 2.523438 C 18.710938 2.523438 14.679688 1.527344 11.117188 -0.460938 C 7.523438 -2.464844 4.726562 -5.253906 2.71875 -8.824219 C 0.726562 -12.371094 -0.265625 -16.394531 -0.265625 -20.898438 C -0.265625 -25.402344 0.726562 -29.4375 2.714844 -33 C 4.722656 -36.589844 7.511719 -39.390625 11.082031 -41.394531 C 14.625 -43.386719 18.652344 -44.382812 23.15625 -44.382812 C 28.613281 -44.382812 33.246094 -43.039062 37.054688 -40.351562 C 40.925781 -37.625 43.480469 -33.859375 44.726562 -29.058594 L 45.449219 -26.273438 L 30.023438 -26.273438 Z M 33.304688 -29.5625 L 31.347656 -28.5 L 31.347656 -30.726562 L 42.570312 -30.726562 L 42.570312 -28.5 L 40.414062 -27.941406 C 39.445312 -31.6875 37.46875 -34.613281 34.488281 -36.714844 C 31.449219 -38.859375 27.671875 -39.929688 23.15625 -39.929688 C 19.425781 -39.929688 16.128906 -39.125 13.261719 -37.511719 C 10.421875 -35.917969 8.203125 -33.6875 6.605469 -30.828125 C 4.992188 -27.941406 4.1875 -24.628906 4.1875 -20.898438 C 4.1875 -17.171875 4.992188 -13.875 6.601562 -11.007812 C 8.199219 -8.164062 10.425781 -5.945312 13.285156 -4.347656 C 16.175781 -2.734375 19.484375 -1.929688 23.214844 -1.929688 C 26.355469 -1.929688 29.160156 -2.527344 31.625 -3.726562 C 34.105469 -4.929688 36.144531 -6.496094 37.738281 -8.425781 C 39.347656 -10.367188 40.484375 -12.460938 41.148438 -14.707031 L 43.285156 -14.070312 L 41.058594 -14.070312 L 41.058594 -23.511719 L 43.285156 -23.511719 L 43.285156 -21.285156 L 21.195312 -21.285156 L 21.195312 -23.511719 L 23.421875 -23.511719 L 23.421875 -16.03125 L 21.195312 -16.03125 L 21.195312 -18.257812 L 37.171875 -18.257812 L 36.191406 -15.328125 C 35.253906 -12.503906 33.730469 -10.320312 31.628906 -8.773438 C 29.515625 -7.21875 26.96875 -6.441406 23.988281 -6.441406 C 19.714844 -6.441406 16.320312 -7.746094 13.804688 -10.359375 C 11.3125 -12.949219 10.0625 -16.460938 10.0625 -20.898438 C 10.0625 -25.078125 11.25 -28.460938 13.617188 -31.042969 C 16.039062 -33.683594 19.21875 -35 23.15625 -35 C 25.417969 -35 27.414062 -34.550781 29.144531 -33.652344 C 30.949219 -32.707031 32.339844 -31.347656 33.304688 -29.5625 Z M 33.304688 -29.5625 "/></g></g></g><g fill="#ffffff" fill-opacity="1"><g transform="translate(1.331971, 56.201834)"><g><path d="M 31.34375 -28.5 C 30.59375 -29.882812 29.515625 -30.941406 28.109375 -31.671875 C 26.703125 -32.410156 25.050781 -32.78125 23.15625 -32.78125 C 19.875 -32.78125 17.242188 -31.695312 15.265625 -29.53125 C 13.285156 -27.375 12.296875 -24.5 12.296875 -20.90625 C 12.296875 -17.0625 13.332031 -14.0625 15.40625 -11.90625 C 17.488281 -9.75 20.347656 -8.671875 23.984375 -8.671875 C 26.484375 -8.671875 28.59375 -9.300781 30.3125 -10.5625 C 32.03125 -11.832031 33.285156 -13.65625 34.078125 -16.03125 L 21.203125 -16.03125 L 21.203125 -23.515625 L 43.28125 -23.515625 L 43.28125 -14.078125 C 42.53125 -11.535156 41.253906 -9.175781 39.453125 -7 C 37.648438 -4.820312 35.363281 -3.0625 32.59375 -1.71875 C 29.820312 -0.375 26.695312 0.296875 23.21875 0.296875 C 19.101562 0.296875 15.429688 -0.601562 12.203125 -2.40625 C 8.972656 -4.207031 6.457031 -6.707031 4.65625 -9.90625 C 2.851562 -13.113281 1.953125 -16.78125 1.953125 -20.90625 C 1.953125 -25.019531 2.851562 -28.6875 4.65625 -31.90625 C 6.457031 -35.132812 8.960938 -37.648438 12.171875 -39.453125 C 15.378906 -41.253906 19.039062 -42.15625 23.15625 -42.15625 C 28.144531 -42.15625 32.347656 -40.945312 35.765625 -38.53125 C 39.191406 -36.113281 41.460938 -32.769531 42.578125 -28.5 Z M 31.34375 -28.5 "/></g></g></g></g></g></g></g><g clip-path="url(#5129943e2d)"><g transform="matrix(1, 0, 0, 1, 0, 61)"><g clip-path="url(#3899e13d82)"><g clip-path="url(#0c313ab5f0)"><path fill="#ee7203" d="M 0 0.5 L 74.980469 0.5 L 74.980469 19.101562 L 0 19.101562 Z M 0 0.5 " fill-opacity="1" fill-rule="nonzero"/></g></g></g></g><g transform="matrix(1, 0, 0, 1, 16, 51)"><g clip-path="url(#5fbefccc9b)"><g fill="#000000" fill-opacity="1"><g transform="translate(1.341537, 21.26505)"><g><path d="M 14.316406 -13.582031 L 14.316406 1.355469 L 8.300781 1.355469 L 8.300781 -5.589844 L 9.652344 -5.589844 L 9.652344 -4.238281 L 4.507812 -4.238281 L 4.507812 -5.589844 L 5.863281 -5.589844 L 5.863281 1.355469 L -0.15625 1.355469 L -0.15625 -14.933594 L 5.863281 -14.933594 L 5.863281 -8.261719 L 4.507812 -8.261719 L 4.507812 -9.613281 L 9.652344 -9.613281 L 9.652344 -8.261719 L 8.300781 -8.261719 L 8.300781 -14.933594 L 14.316406 -14.933594 Z M 11.605469 -13.582031 L 12.960938 -13.582031 L 12.960938 -12.226562 L 9.652344 -12.226562 L 9.652344 -13.582031 L 11.007812 -13.582031 L 11.007812 -6.90625 L 3.152344 -6.90625 L 3.152344 -13.582031 L 4.507812 -13.582031 L 4.507812 -12.226562 L 1.199219 -12.226562 L 1.199219 -13.582031 L 2.554688 -13.582031 L 2.554688 0 L 1.199219 0 L 1.199219 -1.355469 L 4.507812 -1.355469 L 4.507812 0 L 3.152344 0 L 3.152344 -6.945312 L 11.007812 -6.945312 L 11.007812 0 L 9.652344 0 L 9.652344 -1.355469 L 12.960938 -1.355469 L 12.960938 0 L 11.605469 0 Z M 11.605469 -13.582031 "/></g></g></g><g fill="#000000" fill-opacity="1"><g transform="translate(15.483023, 21.26505)"><g><path d="M 13.214844 -10.792969 L 13.214844 1.355469 L 7.195312 1.355469 L 7.195312 -1.46875 L 8.550781 -1.46875 L 9.660156 -0.691406 C 9.195312 -0.03125 8.574219 0.496094 7.796875 0.890625 C 7.03125 1.277344 6.191406 1.46875 5.28125 1.46875 C 4.210938 1.46875 3.257812 1.226562 2.414062 0.734375 C 1.550781 0.230469 0.882812 -0.488281 0.414062 -1.425781 C -0.03125 -2.3125 -0.25 -3.332031 -0.25 -4.488281 L -0.25 -12.148438 L 5.746094 -12.148438 L 5.746094 -4.933594 C 5.746094 -4.566406 5.8125 -4.316406 5.941406 -4.175781 C 6.046875 -4.0625 6.222656 -4.003906 6.460938 -4.003906 C 6.714844 -4.003906 6.894531 -4.0625 7 -4.175781 C 7.132812 -4.316406 7.195312 -4.566406 7.195312 -4.933594 L 7.195312 -12.148438 L 13.214844 -12.148438 Z M 10.503906 -10.792969 L 11.859375 -10.792969 L 11.859375 -9.441406 L 8.550781 -9.441406 L 8.550781 -10.792969 L 9.90625 -10.792969 L 9.90625 -4.933594 C 9.90625 -3.855469 9.597656 -2.984375 8.980469 -2.324219 C 8.335938 -1.640625 7.496094 -1.296875 6.460938 -1.296875 C 5.4375 -1.296875 4.605469 -1.640625 3.964844 -2.324219 C 3.347656 -2.984375 3.039062 -3.855469 3.039062 -4.933594 L 3.039062 -10.792969 L 4.390625 -10.792969 L 4.390625 -9.441406 L 1.101562 -9.441406 L 1.101562 -10.792969 L 2.457031 -10.792969 L 2.457031 -4.488281 C 2.457031 -3.761719 2.582031 -3.144531 2.835938 -2.636719 C 3.0625 -2.179688 3.378906 -1.839844 3.777344 -1.605469 C 4.199219 -1.359375 4.699219 -1.238281 5.28125 -1.238281 C 5.761719 -1.238281 6.195312 -1.335938 6.574219 -1.527344 C 6.949219 -1.714844 7.238281 -1.957031 7.441406 -2.25 L 9.90625 -5.753906 L 9.90625 0 L 8.550781 0 L 8.550781 -1.355469 L 11.859375 -1.355469 L 11.859375 0 L 10.503906 0 Z M 10.503906 -10.792969 "/></g></g></g><g clip-path="url(#d37e7f56f6)"><g fill="#000000" fill-opacity="1"><g transform="translate(28.521821, 21.26505)"><g><path d="M 3.355469 -9.976562 C 3.792969 -10.6875 4.410156 -11.253906 5.203125 -11.679688 C 5.984375 -12.097656 6.859375 -12.304688 7.835938 -12.304688 C 8.984375 -12.304688 10.027344 -12.007812 10.972656 -11.421875 C 11.910156 -10.835938 12.644531 -10.007812 13.175781 -8.945312 C 13.691406 -7.914062 13.949219 -6.738281 13.949219 -5.417969 C 13.949219 -4.097656 13.691406 -2.917969 13.179688 -1.882812 C 12.648438 -0.8125 11.914062 0.0195312 10.976562 0.613281 C 10.035156 1.210938 8.988281 1.507812 7.835938 1.507812 C 6.847656 1.507812 5.972656 1.304688 5.203125 0.894531 C 4.429688 0.480469 3.816406 -0.078125 3.367188 -0.777344 L 4.507812 -1.507812 L 5.863281 -1.507812 L 5.863281 1.355469 L -0.15625 1.355469 L -0.15625 -15.667969 L 5.863281 -15.667969 L 5.863281 -9.265625 L 4.507812 -9.265625 Z M 3.152344 -4.480469 L 3.152344 -14.316406 L 4.507812 -14.316406 L 4.507812 -12.960938 L 1.199219 -12.960938 L 1.199219 -14.316406 L 2.554688 -14.316406 L 2.554688 0 L 1.199219 0 L 1.199219 -1.355469 L 4.507812 -1.355469 L 4.507812 0 L 3.152344 0 L 3.152344 -6.128906 L 5.648438 -2.238281 C 5.84375 -1.933594 6.121094 -1.6875 6.480469 -1.496094 C 6.847656 -1.296875 7.300781 -1.199219 7.835938 -1.199219 C 8.460938 -1.199219 9.027344 -1.359375 9.527344 -1.675781 C 10.035156 -2 10.445312 -2.46875 10.753906 -3.085938 C 11.078125 -3.742188 11.238281 -4.519531 11.238281 -5.417969 C 11.238281 -6.3125 11.078125 -7.085938 10.753906 -7.730469 C 10.449219 -8.34375 10.042969 -8.808594 9.535156 -9.125 C 9.03125 -9.4375 8.464844 -9.59375 7.835938 -9.59375 C 7.3125 -9.59375 6.859375 -9.492188 6.480469 -9.289062 C 6.113281 -9.097656 5.84375 -8.851562 5.660156 -8.558594 Z M 7.875 -5.417969 C 7.875 -5.875 7.773438 -6.207031 7.570312 -6.417969 C 7.378906 -6.613281 7.136719 -6.710938 6.847656 -6.710938 C 6.574219 -6.710938 6.34375 -6.613281 6.152344 -6.414062 C 5.945312 -6.199219 5.84375 -5.859375 5.84375 -5.398438 C 5.84375 -4.933594 5.945312 -4.597656 6.152344 -4.382812 C 6.34375 -4.179688 6.574219 -4.082031 6.847656 -4.082031 C 7.121094 -4.082031 7.355469 -4.183594 7.554688 -4.390625 C 7.765625 -4.613281 7.875 -4.953125 7.875 -5.417969 Z M 10.582031 -5.417969 C 10.582031 -4.226562 10.222656 -3.261719 9.507812 -2.515625 C 8.777344 -1.753906 7.890625 -1.375 6.847656 -1.375 C 5.804688 -1.375 4.921875 -1.75 4.199219 -2.507812 C 3.488281 -3.246094 3.132812 -4.207031 3.132812 -5.398438 C 3.132812 -6.585938 3.488281 -7.550781 4.199219 -8.289062 C 4.921875 -9.042969 5.804688 -9.421875 6.847656 -9.421875 C 7.898438 -9.421875 8.789062 -9.050781 9.511719 -8.304688 C 10.226562 -7.570312 10.582031 -6.609375 10.582031 -5.417969 Z M 10.582031 -5.417969 "/></g></g></g></g><g fill="#ffffff" fill-opacity="1"><g transform="translate(1.341537, 21.26505)"><g><path d="M 12.953125 -13.578125 L 12.953125 0 L 9.65625 0 L 9.65625 -5.59375 L 4.5 -5.59375 L 4.5 0 L 1.203125 0 L 1.203125 -13.578125 L 4.5 -13.578125 L 4.5 -8.265625 L 9.65625 -8.265625 L 9.65625 -13.578125 Z M 12.953125 -13.578125 "/></g></g></g><g fill="#ffffff" fill-opacity="1"><g transform="translate(15.483023, 21.26505)"><g><path d="M 11.859375 -10.796875 L 11.859375 0 L 8.546875 0 L 8.546875 -1.46875 C 8.210938 -0.988281 7.757812 -0.601562 7.1875 -0.3125 C 6.613281 -0.03125 5.976562 0.109375 5.28125 0.109375 C 4.457031 0.109375 3.726562 -0.0703125 3.09375 -0.4375 C 2.457031 -0.800781 1.96875 -1.332031 1.625 -2.03125 C 1.28125 -2.726562 1.109375 -3.546875 1.109375 -4.484375 L 1.109375 -10.796875 L 4.390625 -10.796875 L 4.390625 -4.9375 C 4.390625 -4.207031 4.578125 -3.644531 4.953125 -3.25 C 5.328125 -2.851562 5.828125 -2.65625 6.453125 -2.65625 C 7.097656 -2.65625 7.609375 -2.851562 7.984375 -3.25 C 8.359375 -3.644531 8.546875 -4.207031 8.546875 -4.9375 L 8.546875 -10.796875 Z M 11.859375 -10.796875 "/></g></g></g><g fill="#ffffff" fill-opacity="1"><g transform="translate(28.521821, 21.26505)"><g><path d="M 4.5 -9.265625 C 4.8125 -9.765625 5.257812 -10.171875 5.84375 -10.484375 C 6.425781 -10.796875 7.085938 -10.953125 7.828125 -10.953125 C 8.722656 -10.953125 9.53125 -10.722656 10.25 -10.265625 C 10.96875 -9.816406 11.535156 -9.171875 11.953125 -8.328125 C 12.378906 -7.492188 12.59375 -6.523438 12.59375 -5.421875 C 12.59375 -4.304688 12.378906 -3.328125 11.953125 -2.484375 C 11.535156 -1.640625 10.96875 -0.988281 10.25 -0.53125 C 9.53125 -0.0703125 8.722656 0.15625 7.828125 0.15625 C 7.066406 0.15625 6.398438 0.00390625 5.828125 -0.296875 C 5.265625 -0.597656 4.820312 -1.003906 4.5 -1.515625 L 4.5 0 L 1.203125 0 L 1.203125 -14.3125 L 4.5 -14.3125 Z M 9.234375 -5.421875 C 9.234375 -6.242188 9.003906 -6.890625 8.546875 -7.359375 C 8.085938 -7.828125 7.519531 -8.0625 6.84375 -8.0625 C 6.1875 -8.0625 5.628906 -7.820312 5.171875 -7.34375 C 4.710938 -6.875 4.484375 -6.222656 4.484375 -5.390625 C 4.484375 -4.566406 4.710938 -3.914062 5.171875 -3.4375 C 5.628906 -2.96875 6.1875 -2.734375 6.84375 -2.734375 C 7.5 -2.734375 8.0625 -2.972656 8.53125 -3.453125 C 9 -3.929688 9.234375 -4.585938 9.234375 -5.421875 Z M 9.234375 -5.421875 "/></g></g></g></g></g></svg>